<svg width="100" height="79" viewBox="0 0 100 79" fill="none" xmlns="http://www.w3.org/2000/svg">
<path d="M0.807129 0.93335C11.1645 0.93335 21.0976 5.10033 28.4214 12.5176C35.7452 19.9349 39.8596 29.9948 39.8596 40.4844V78.0667C29.5022 78.0667 19.5691 73.8997 12.2453 66.4824C4.92157 59.0652 0.807129 49.0052 0.807129 38.5156V0.93335Z" fill="#780096"/>
<path d="M43.2698 46.0885V26.1315C43.2698 22.8213 43.9138 19.5436 45.165 16.4855C46.4162 13.4274 48.25 10.649 50.5618 8.30898C52.8736 5.96894 55.618 4.11313 58.6381 2.84759C61.6583 1.58206 64.8951 0.931588 68.1636 0.933353V20.897C68.1636 24.2069 67.5195 27.4844 66.2683 30.5421C65.017 33.5997 63.183 36.3777 60.8711 38.7172C58.5593 41.0567 55.8149 42.9119 52.7947 44.1767C49.7746 45.4415 46.5379 46.0912 43.2698 46.0885Z" fill="#780096"/>
<path d="M43.2698 49.9858H71.7994C79.1478 49.9858 86.1952 52.9422 91.3912 58.2046C96.5873 63.467 99.5064 70.6044 99.5064 78.0465H70.9767C63.6284 78.0465 56.581 75.0902 51.385 69.8278C46.1889 64.5653 43.2698 57.428 43.2698 49.9858Z" fill="#780096"/>
</svg>
